<svg id="a69e20e4-23bd-4ed9-bd8d-6cd05a51e619" data-name="Layer 1" xmlns="http://www.w3.org/2000/svg" viewBox="0 0 589.83 167.06"><title>logo-mm-grey</title><path d="M665.14,708.36a66.7,66.7,0,0,1,41.13,14.11c-16.47,11.95-25.94,25-34.73,37.13-13.13,18.13-24.37,33.62-65.62,36l-4.55.26a67,67,0,0,1,63.77-87.5Zm63.07,44.39c-8.66,10-14.89,20-20.53,29.17-19.12,30.95-32.94,53.32-89,41.59a67,67,0,0,0,109.58-70.77Z" transform="translate(-598.17 -675.25)" style="fill:#879395;fill-rule:evenodd"/><polygon points="151.18 164.49 159.44 67.97 171.21 67.97 184.3 134.8 197.73 67.97 209.09 67.97 217.49 164.49 205.45 164.49 201.56 96.79 188.67 164.49 179.87 164.49 166.98 96.79 163.08 164.49 151.18 164.49" style="fill:#879395;fill-rule:evenodd"/><path d="M837.08,807.21q0,12.44,2.08,17.52t6.84,5.09c3.18,0,5.46-1.71,6.84-5.12s2.09-9.24,2.09-17.49-.68-14.09-2.05-17.42-3.66-5-6.88-5-5.51,1.67-6.87,5-2,9.13-2,17.42Zm17.45,32.53V833.4a16.49,16.49,0,0,1-5.58,5.72,14.21,14.21,0,0,1-7.24,1.81q-8.2,0-12.43-8.52T825,807.21q0-16.53,4.2-25t12.46-8.5a14.58,14.58,0,0,1,7.31,1.78,15.88,15.88,0,0,1,5.52,5.62v-6.22h11.9v64.86Z" transform="translate(-598.17 -675.25)" style="fill:#879395;fill-rule:evenodd"/><polygon points="290.94 130.11 278.18 99.63 290.68 99.63 297.15 118.34 303.77 99.63 316.13 99.63 303.5 130.11 318.38 164.49 305.82 164.49 297.15 141.88 288.63 164.49 276 164.49 290.94 130.11" style="fill:#879395;fill-rule:evenodd"/><polygon points="324.13 164.49 332.39 67.97 344.16 67.97 357.25 134.8 370.67 67.97 382.03 67.97 390.43 164.49 378.41 164.49 374.51 96.79 361.62 164.49 352.82 164.49 339.93 96.79 336.03 164.49 324.13 164.49" style="fill:#879395;fill-rule:evenodd"/><path d="M1000.84,839.74V774.88h11.9v64.86Zm-1.66-84.23a7.57,7.57,0,0,1,2.19-5.49,7.6,7.6,0,0,1,10.78,0,7.61,7.61,0,0,1,2.18,5.49,7.33,7.33,0,0,1-2.22,5.39,7.21,7.21,0,0,1-5.31,2.22,7.46,7.46,0,0,1-7.62-7.61Z" transform="translate(-598.17 -675.25)" style="fill:#879395;fill-rule:evenodd"/><rect x="429.77" y="62.02" width="11.9" height="102.47" style="fill:#879395"/><path d="M1054.92,839.74V737.27h11.9v44.09a13.74,13.74,0,0,1,5.46-5.32,17,17,0,0,1,8.1-1.82q7.13,0,10.61,4c2.32,2.65,3.46,6.68,3.46,12.09v49.46h-12V796.18q0-6.62-1.72-9c-1.15-1.58-3.13-2.39-5.95-2.39a7.27,7.27,0,0,0-6,2.48q-2,2.49-2,7.38v45.09Z" transform="translate(-598.17 -675.25)" style="fill:#879395;fill-rule:evenodd"/><path d="M1118.26,807.21q0,12.44,2.08,17.52t6.85,5.09q4.75,0,6.83-5.12t2.08-17.49q0-12.44-2-17.42c-1.36-3.34-3.65-5-6.86-5s-5.52,1.67-6.88,5-2.05,9.13-2,17.42Zm17.46,32.53V833.4a16.57,16.57,0,0,1-5.59,5.72,14.21,14.21,0,0,1-7.23,1.81q-8.21,0-12.43-8.52t-4.23-25.19q0-16.53,4.2-25t12.46-8.5a14.58,14.58,0,0,1,7.3,1.78,15.91,15.91,0,0,1,5.52,5.62v-6.22h11.9v64.86Z" transform="translate(-598.17 -675.25)" style="fill:#879395;fill-rule:evenodd"/><path d="M1158.19,826.06a19.94,19.94,0,0,0,5,3.28,12.46,12.46,0,0,0,5.06,1.09,8.58,8.58,0,0,0,6.15-2.25,7.57,7.57,0,0,0,2.38-5.74q0-4.18-6.54-10.39c-.58-.57-1-1-1.33-1.25q-6.34-6-8.52-10a17.79,17.79,0,0,1-2.18-8.73c0-5.47,1.68-9.91,5-13.35a17.37,17.37,0,0,1,13-5.16,20.76,20.76,0,0,1,5.19.66,24.48,24.48,0,0,1,5.07,2v12.24a12.53,12.53,0,0,0-4.21-3.31,12.38,12.38,0,0,0-5.26-1.06,7.39,7.39,0,0,0-5.45,2.12,7.19,7.19,0,0,0-2.15,5.35q0,4.3,6.28,10,1.24,1.12,1.85,1.72c3.91,3.61,6.65,6.87,8.16,9.78a20.85,20.85,0,0,1,2.27,9.72q0,8.27-5,13.19t-13.43,4.92a27,27,0,0,1-5.56-.59,34,34,0,0,1-5.81-1.79Z" transform="translate(-598.17 -675.25)" style="fill:#879395;fill-rule:evenodd"/><path d="M766.78,708.6c-108.23,29.58-66.67,93.94-160.18,99.29C711.19,837,671.85,754.45,766.78,708.6Z" transform="translate(-598.17 -675.25)" style="fill:#879395;fill-rule:evenodd"/><path d="M804.29,709.4l-.19.45c-.15.4-.33.8-.49,1.2-.43,1.15-1,2.26-1.4,3.41-.25.67-.58,1.33-.85,2-.85,2.16-1.76,4.29-2.61,6.46-.31.79-.69,1.57-1,2.36-.48,1.24-1,2.45-1.52,3.68-.13.35-.28.68-.42,1a1.89,1.89,0,0,1-.14.43l-3.86,1.11c0-.15-.08-.27-.12-.41a2,2,0,0,1,.44-.32c.18-1.28.43-2.56.62-3.83.46-3,.94-5.9,1.39-8.87.21-1.33.44-2.66.64-4,.06-.41.13-.8.19-1.21a3.91,3.91,0,0,0,.11-.69l-.11,0h0c.08,0,.09,0,.11-.07s-.08-.4-.1-.59c0-.43-.15-.89-.17-1.31l-.07-.29c0-.57-.2-1.18-.22-1.75,0-.1,0-.2-.07-.3,0-.43-.17-.87-.2-1.32,0-.23-.09-.48-.11-.73a6.32,6.32,0,0,0-.15-1.1l-4.78,1.39a7.79,7.79,0,0,1-1.56.41c-.11,0-.27.09-.36.09l-.87.21-2.34.46c-.47,0-.94.21-1.42.24l-1.49.19c0,.24-.25.5-.34.72-.2.49-.44.93-.64,1.42,0,.13-.16.26-.21.4-.68,1.68-1.6,3.25-2.29,4.93-.18.42-.44.81-.6,1.23-.28.66-.65,1.3-.93,2,0,.09-.09.19-.12.28a.4.4,0,0,1,0,.12,1,1,0,0,0-.15.19c0,.07-.06.22-.11.27-1.08.3-2.15.61-3.23.94-.05-.1-.15-.19-.2-.27s0-.24,0-.31c0-.28,0-.54,0-.8.06-.62.06-1.24.11-1.86s0-.92.06-1.38c.14-1.5.14-3,.29-4.54.06-.71,0-1.43.11-2.14-.58.13-1.17.19-1.72.28,0,.13,0,.13.08.26a3.8,3.8,0,0,0-1.27.37c-.07-.24,0-.38-.05-.63a4.5,4.5,0,0,1-.89,0c-.22,0-.53.16-.72.17l-.1-.07c-.07-.19,0-.25,0-.4-.41.12-1.18.45-1.38.19,0-.12-.07-.24-.11-.36s.08-.19.19-.26l1.08-.31c-.05-.18-.17-.23-.19-.43.19-.18.45-.13.72-.28a5.06,5.06,0,0,1,.78-.49c-.07-.23-.26-.31-.32-.54.38-.11,1.06-.19,1.44-.3,0,.13-.09.07,0,.22h0c.09-.11.28-.14.41-.21a6.49,6.49,0,0,1,1.26-.5,3.12,3.12,0,0,0-.46-.64c-.32-.42-.6-.86-.91-1.27s-.43-.67-.69-1c-.69-.91-1.35-1.91-2.05-2.84-.23-.29-.38-.59-.61-.89-.37-.49-.7-1-1.08-1.52a3.59,3.59,0,0,1-.68-1.08l3.39-1c.19.15.44.25.63.39.43.31.89.56,1.33.87.13.09.28.14.4.23,1.45,1,3,1.86,4.49,2.89.33.24.73.41,1.07.64.51.37,1.06.67,1.57,1a4.37,4.37,0,0,1,.4.22,4.2,4.2,0,0,0,.85.53c.13-.14.51-.21.7-.32.52-.29,1.18-.47,1.72-.75l.36-.13c.49-.26,1.13-.37,1.63-.65l.52-.17c.16-.1.4-.11.59-.21a12.91,12.91,0,0,1,2.06-.66l4.62-1.33a3.57,3.57,0,0,0-.36-.81c-.15-.27-.22-.57-.36-.82l-.16-.41c-.29-.5-.45-1.12-.74-1.62l-.11-.29c-.21-.37-.31-.82-.54-1.21s-.2-.55-.36-.82a5.21,5.21,0,0,1-.4-.89.44.44,0,0,0-.12,0v0h0a.12.12,0,0,1,0,0c-.72-.86-1.51-1.69-2.24-2.52-2.27-2.63-4.6-5.19-6.86-7.81l-2.4-2.73-.69-.78c-.09-.11-.15-.26-.27-.3-.41-.12-.46.17-.62-.46l3.86-1.11a4,4,0,0,0,.37.24c.32.23.65.45,1,.69,1,.73,2,1.4,3,2.13,2.85,2.12,5.8,4.1,8.66,6.21.4.28.84.55,1.23.84,1.07.78,2.17,1.5,3.22,2.29l.74.52.41.2,2.1,1.61s.59.42.67.49c.47.36,1,.68,1.45,1s.76.5,1.13.76.63.51,1,.73a3.55,3.55,0,0,0,.67.23c.23.07.45.2.68.27a3.71,3.71,0,0,1,.44.14.22.22,0,0,1,0,.06l14.3-4.14c.19,0,.64-.19.88-.21.7-.16,1.4-.3,2.1-.45s1.18-.24,1.75-.27a18.93,18.93,0,0,1,4.8.1l.83.22.07,0a2,2,0,0,1,1.11.74c.3.45-.11,1.11-.29,1.35a8.62,8.62,0,0,1-.59.74,13.91,13.91,0,0,1-2.55,1.9c-2.4,1.57-5.77,2.58-9.26,3.59l-11.11,3.22c0,.16-.22.3-.32.43s-.35.5-.55.73-.28.26-.33.42c-.43,1.05-.87,2.1-1.26,3.16l-.67,1.6Z" transform="translate(-598.17 -675.25)" style="fill:#879395;fill-rule:evenodd"/></svg>